<?xml version="1.0" encoding="UTF-8"?>
<!DOCTYPE svg PUBLIC "-//W3C//DTD SVG 1.1//EN" "http://www.w3.org/Graphics/SVG/1.1/DTD/svg11.dtd">
<svg xmlns="http://www.w3.org/2000/svg" version="1.1" width="258px" height="256px" style="shape-rendering:geometricPrecision; text-rendering:geometricPrecision; image-rendering:optimizeQuality; fill-rule:evenodd; clip-rule:evenodd" xmlns:xlink="http://www.w3.org/1999/xlink">
<g><path style="opacity:0.996" fill="#fdfefd" d="M 113.5,-0.5 C 123.5,-0.5 133.5,-0.5 143.5,-0.5C 169.525,4.20555 192.191,14.5389 211.5,30.5C 211.427,32.0269 212.094,33.0269 213.5,33.5C 215.144,33.8102 216.144,34.8102 216.5,36.5C 216.833,37.5 217.5,38.1667 218.5,38.5C 219.167,38.5 219.5,38.8333 219.5,39.5C 220.167,42.1667 221.833,43.8333 224.5,44.5C 228.038,51.2315 231.872,57.8982 236,64.5C 258.974,117.492 250.807,164.992 211.5,207C 167.691,244.036 120.024,249.703 68.5,224C 19.3025,191.794 0.469182,146.627 12,88.5C 16.3073,74.2237 22.474,60.8904 30.5,48.5C 32.1042,47.713 32.7709,46.3797 32.5,44.5C 32.7822,43.2223 33.4489,42.2223 34.5,41.5C 36.7153,42.3066 38.0487,41.3066 38.5,38.5C 39.1667,37.1667 40.1667,36.1667 41.5,35.5C 42.5,35.1667 43.1667,34.5 43.5,33.5C 44.5,33.1667 45.1667,32.5 45.5,31.5C 46.0819,30.0689 46.9152,28.7356 48,27.5C 48.6708,26.7476 49.5041,26.4142 50.5,26.5C 51.3274,27.4387 51.9941,27.1054 52.5,25.5C 70.5457,11.6485 90.8791,2.98181 113.5,-0.5 Z"/></g>
<g><path style="opacity:0.005" fill="#000000" d="M 52.5,25.5 C 51.9941,27.1054 51.3274,27.4387 50.5,26.5C 50.8417,25.6618 51.5084,25.3284 52.5,25.5 Z"/></g>
<g><path style="opacity:0.004" fill="#3b3b3b" d="M 45.5,31.5 C 45.1667,32.5 44.5,33.1667 43.5,33.5C 43.5,32.1667 44.1667,31.5 45.5,31.5 Z"/></g>
<g><path style="opacity:0.004" fill="#1f1f1f" d="M 211.5,30.5 C 212.906,30.9731 213.573,31.9731 213.5,33.5C 212.094,33.0269 211.427,32.0269 211.5,30.5 Z"/></g>
<g><path style="opacity:0.004" fill="#3b3b3b" d="M 43.5,33.5 C 43.1667,34.5 42.5,35.1667 41.5,35.5C 41.5,34.1667 42.1667,33.5 43.5,33.5 Z"/></g>
<g><path style="opacity:0.005" fill="#000000" d="M 216.5,36.5 C 217.833,36.5 218.5,37.1667 218.5,38.5C 217.5,38.1667 216.833,37.5 216.5,36.5 Z"/></g>
<g><path style="opacity:0.006" fill="#000000" d="M 38.5,38.5 C 38.0487,41.3066 36.7153,42.3066 34.5,41.5C 35.5451,40.1224 36.8784,39.1224 38.5,38.5 Z"/></g>
<g><path style="opacity:0.006" fill="#000000" d="M 219.5,39.5 C 221.812,40.4782 223.478,42.1448 224.5,44.5C 221.833,43.8333 220.167,42.1667 219.5,39.5 Z"/></g>
<g><path style="opacity:0.007" fill="#000000" d="M 32.5,44.5 C 32.7709,46.3797 32.1042,47.713 30.5,48.5C 30.5,47.8333 30.5,47.1667 30.5,46.5C 30.5,45.1667 31.1667,44.5 32.5,44.5 Z"/></g>
<g><path style="opacity:0.004" fill="#e4e4e4" d="M 235.5,58.5 C 236.5,58.8333 237.167,59.5 237.5,60.5C 236.833,60.5 236.5,60.8333 236.5,61.5C 235.596,60.791 235.263,59.791 235.5,58.5 Z"/></g>
<g><path style="opacity:0.004" fill="#fefffe" d="M 20.5,60.5 C 20.5,61.8333 19.8333,62.5 18.5,62.5C 18.8333,61.5 19.5,60.8333 20.5,60.5 Z"/></g>
<g><path style="opacity:0.109" fill="#101010" d="M 224.5,44.5 C 225.496,44.4142 226.329,44.7476 227,45.5C 229.78,49.9188 232.613,54.2521 235.5,58.5C 235.263,59.791 235.596,60.791 236.5,61.5C 237.167,61.5 237.5,61.1667 237.5,60.5C 239.781,66.5591 242.781,72.3925 246.5,78C 246.167,78.3333 245.833,78.6667 245.5,79C 248.786,84.6932 250.786,90.8599 251.5,97.5C 251.328,98.4916 251.662,99.1583 252.5,99.5C 252.317,101.936 252.984,104.103 254.5,106C 253.62,107.356 253.286,108.856 253.5,110.5C 253.263,111.791 253.596,112.791 254.5,113.5C 254.607,117.098 255.274,120.598 256.5,124C 256.057,126.933 255.724,129.767 255.5,132.5C 254.596,133.209 254.263,134.209 254.5,135.5C 254.514,138.332 254.847,140.832 255.5,143C 254.139,144.584 253.472,146.418 253.5,148.5C 252.167,149.167 252.167,149.833 253.5,150.5C 251.532,162.629 247.532,174.295 241.5,185.5C 240.751,186.531 240.085,187.698 239.5,189C 239.833,189.333 240.167,189.667 240.5,190C 238.136,191.012 236.802,192.345 236.5,194C 236.833,194.333 237.167,194.667 237.5,195C 233.289,199.937 229.456,205.104 226,210.5C 210.937,226.318 193.604,238.318 174,246.5C 173.667,246.167 173.333,245.833 173,245.5C 172.612,246.428 171.945,247.095 171,247.5C 166.055,248.591 161.389,250.258 157,252.5C 156.439,251.978 155.772,251.645 155,251.5C 151.514,253.389 148.014,254.056 144.5,253.5C 143.039,252.314 141.705,252.314 140.5,253.5C 131.216,254.674 121.216,254.674 110.5,253.5C 110.209,252.351 109.376,251.684 108,251.5C 106.93,251.528 106.097,251.861 105.5,252.5C 93.5733,250.032 82.2399,246.365 71.5,241.5C 73.8312,241.141 73.6645,240.474 71,239.5C 70.5357,240.094 70.369,240.761 70.5,241.5C 68.6653,241.061 67.1653,239.728 66,237.5C 65.2825,238.451 64.4491,238.617 63.5,238C 60.8384,235.015 57.8384,232.515 54.5,230.5C 54.1667,229.167 53.8333,229.167 53.5,230.5C 50.644,228.25 47.3106,225.75 43.5,223C 39.2792,218.112 34.7792,213.612 30,209.5C 28.1214,207.129 26.9547,204.462 26.5,201.5C 25.448,201.649 24.448,201.483 23.5,201C 23.8333,200.667 24.1667,200.333 24.5,200C 23.3333,198.833 22.1667,197.667 21,196.5C 19.2734,193.609 17.7734,190.609 16.5,187.5C 17.7734,184.729 16.7734,183.062 13.5,182.5C 10.363,173.759 7.02966,164.759 3.5,155.5C 3.71861,153.052 3.71861,150.718 3.5,148.5C 4.43873,147.673 4.10539,147.006 2.5,146.5C 1.76283,143.762 1.76283,141.095 2.5,138.5C 2.2395,136.813 1.57283,135.313 0.5,134C 0.953007,129.56 0.953007,125.226 0.5,121C 1.29311,119.915 1.95978,118.748 2.5,117.5C 2.43073,115.722 2.0974,113.889 1.5,112C 2.16667,110.667 2.83333,109.333 3.5,108C 3.38419,106.732 3.05085,105.398 2.5,104C 4.14579,102.445 4.47913,100.779 3.5,99C 5.83364,93.3159 8.16697,87.6492 10.5,82C 10.1667,81.6667 9.83333,81.3333 9.5,81C 13.1939,74.2075 16.1939,68.0408 18.5,62.5C 19.8333,62.5 20.5,61.8333 20.5,60.5C 20.3505,59.448 20.5172,58.448 21,57.5C 24.7593,53.6311 27.926,49.9644 30.5,46.5C 30.5,47.1667 30.5,47.8333 30.5,48.5C 22.474,60.8904 16.3073,74.2237 12,88.5C 0.469182,146.627 19.3025,191.794 68.5,224C 120.024,249.703 167.691,244.036 211.5,207C 250.807,164.992 258.974,117.492 236,64.5C 231.872,57.8982 228.038,51.2315 224.5,44.5 Z"/></g>
<g><path style="opacity:1" fill="#2ec169" d="M 82.5,54.5 C 117.168,54.3333 151.835,54.5 186.5,55C 189.196,55.6898 191.363,57.1898 193,59.5C 194.315,84.7461 194.982,110.079 195,135.5C 212.645,151.76 214.979,170.093 202,190.5C 191.339,203.055 177.839,207.888 161.5,205C 149.02,201.687 140.02,194.187 134.5,182.5C 112.841,181.667 91.1744,181.167 69.5,181C 66.6193,179.749 64.786,177.583 64,174.5C 63.3333,139.167 63.3333,103.833 64,68.5C 66.7033,64.2299 70.5366,61.5633 75.5,60.5C 77.2885,57.7001 79.6218,55.7001 82.5,54.5 Z"/></g>
<g><path style="opacity:1" fill="#9ee0b2" d="M 181.5,65.5 C 184.167,65.5 186.833,65.5 189.5,65.5C 188.024,67.5 186.191,69.1666 184,70.5C 183.832,90.0043 183.332,109.338 182.5,128.5C 182.5,108.833 182.5,89.1667 182.5,69.5C 182.567,68.0413 182.234,66.7079 181.5,65.5 Z"/></g>
<g><path style="opacity:1" fill="#fdfefd" d="M 182.5,69.5 C 182.5,89.1667 182.5,108.833 182.5,128.5C 157.596,123.367 140.762,132.701 132,156.5C 130.23,162.465 130.063,168.465 131.5,174.5C 112.007,175.497 92.3404,175.83 72.5,175.5C 71.5416,175.047 70.7083,174.381 70,173.5C 69.1709,138.595 69.3375,103.762 70.5,69C 88.4122,67.8457 106.412,67.3457 124.5,67.5C 141.833,67.6667 159.167,67.8333 176.5,68C 178.518,68.5046 180.518,69.0046 182.5,69.5 Z"/></g>
<g><path style="opacity:1" fill="#ecf8ef" d="M 191.5,66.5 C 192.828,88.337 192.828,110.337 191.5,132.5C 189.5,131.5 187.5,130.5 185.5,129.5C 184.167,110.167 184.167,90.8333 185.5,71.5C 187.571,69.8149 189.571,68.1482 191.5,66.5 Z"/></g>
<g><path style="opacity:1" fill="#83d89e" d="M 83.5,60.5 C 114.167,61.1667 144.833,61.8333 175.5,62.5C 144.165,62.6666 112.832,62.5 81.5,62C 82.0442,61.2828 82.7109,60.7828 83.5,60.5 Z"/></g>
<g><path style="opacity:1" fill="#d2f0db" d="M 83.5,60.5 C 118.502,60.3333 153.502,60.5 188.5,61C 194.55,61.9459 194.883,63.4459 189.5,65.5C 186.833,65.5 184.167,65.5 181.5,65.5C 180.089,63.461 178.089,62.461 175.5,62.5C 144.833,61.8333 114.167,61.1667 83.5,60.5 Z"/></g>
<g><path style="opacity:0.004" fill="#b8b8b8" d="M 251.5,97.5 C 253.105,98.0059 253.439,98.6726 252.5,99.5C 251.662,99.1583 251.328,98.4916 251.5,97.5 Z"/></g>
<g><path style="opacity:0.004" fill="#b8b8b8" d="M 253.5,110.5 C 255.552,111.053 255.885,112.053 254.5,113.5C 253.596,112.791 253.263,111.791 253.5,110.5 Z"/></g>
<g><path style="opacity:1" fill="#fcfefc" d="M 164.5,130.5 C 186.286,129.632 200.12,139.632 206,160.5C 205.817,190.014 190.984,203.514 161.5,201C 141.013,193.206 132.513,178.373 136,156.5C 140.952,142.709 150.452,134.043 164.5,130.5 Z"/></g>
<g><path style="opacity:0.004" fill="#acacac" d="M 255.5,132.5 C 256.815,133.895 256.481,134.895 254.5,135.5C 254.263,134.209 254.596,133.209 255.5,132.5 Z"/></g>
<g><path style="opacity:1" fill="#24c065" d="M 173.5,143.5 C 173.5,150.833 173.5,158.167 173.5,165.5C 180.5,165.5 187.5,165.5 194.5,165.5C 194.5,166.5 194.5,167.5 194.5,168.5C 187.833,168.5 181.167,168.5 174.5,168.5C 173.508,175.648 173.175,182.981 173.5,190.5C 172.5,190.5 171.5,190.5 170.5,190.5C 170.5,183.167 170.5,175.833 170.5,168.5C 162.833,168.5 155.167,168.5 147.5,168.5C 147.5,167.167 147.5,165.833 147.5,164.5C 155.167,164.5 162.833,164.5 170.5,164.5C 170.5,157.5 170.5,150.5 170.5,143.5C 171.5,143.5 172.5,143.5 173.5,143.5 Z"/></g>
<g><path style="opacity:0.004" fill="#dddddd" d="M 2.5,146.5 C 4.10539,147.006 4.43873,147.673 3.5,148.5C 2.66175,148.158 2.32842,147.492 2.5,146.5 Z"/></g>
<g><path style="opacity:0.004" fill="#dddddd" d="M 253.5,148.5 C 254.506,149.396 254.506,150.062 253.5,150.5C 252.167,149.833 252.167,149.167 253.5,148.5 Z"/></g>
<g><path style="opacity:1" fill="#70d190" d="M 173.5,143.5 C 174.491,150.313 174.825,157.313 174.5,164.5C 181.5,164.5 188.5,164.5 195.5,164.5C 195.768,166.099 195.434,167.432 194.5,168.5C 194.5,167.5 194.5,166.5 194.5,165.5C 187.5,165.5 180.5,165.5 173.5,165.5C 173.5,158.167 173.5,150.833 173.5,143.5 Z"/></g>
<g><path style="opacity:1" fill="#afe5bf" d="M 147.5,168.5 C 155.167,168.5 162.833,168.5 170.5,168.5C 170.5,175.833 170.5,183.167 170.5,190.5C 171.5,190.5 172.5,190.5 173.5,190.5C 173.175,182.981 173.508,175.648 174.5,168.5C 174.5,176.167 174.5,183.833 174.5,191.5C 172.833,191.5 171.167,191.5 169.5,191.5C 169.5,184.167 169.5,176.833 169.5,169.5C 161.981,169.825 154.648,169.492 147.5,168.5 Z"/></g>
<g><path style="opacity:1" fill="#81d79d" d="M 131.5,174.5 C 132.043,174.56 132.376,174.893 132.5,175.5C 112.337,176.828 92.3373,176.828 72.5,175.5C 92.3404,175.83 112.007,175.497 131.5,174.5 Z"/></g>
<g><path style="opacity:0.016" fill="#6e6e6e" d="M 13.5,182.5 C 16.7734,183.062 17.7734,184.729 16.5,187.5C 15.6923,185.78 14.6923,184.113 13.5,182.5 Z"/></g>
<g><path style="opacity:0.004" fill="#000000" d="M 241.5,185.5 C 242.833,186.167 242.833,186.167 241.5,185.5 Z"/></g>
<g><path style="opacity:0.004" fill="#fefffe" d="M 53.5,230.5 C 53.8333,230.5 54.1667,230.5 54.5,230.5C 54.3147,231.17 53.9813,231.17 53.5,230.5 Z"/></g>
<g><path style="opacity:0.004" fill="#e4e4e4" d="M 71.5,241.5 C 71.1667,241.5 70.8333,241.5 70.5,241.5C 70.369,240.761 70.5357,240.094 71,239.5C 73.6645,240.474 73.8312,241.141 71.5,241.5 Z"/></g>
<g><path style="opacity:0.008" fill="#a2a2a2" d="M 105.5,252.5 C 106.097,251.861 106.93,251.528 108,251.5C 109.376,251.684 110.209,252.351 110.5,253.5C 108.883,252.962 107.216,252.629 105.5,252.5 Z"/></g>
<g><path style="opacity:0.004" fill="#cdcdcd" d="M 140.5,253.5 C 141.705,252.314 143.039,252.314 144.5,253.5C 143.368,254.354 142.035,254.354 140.5,253.5 Z"/></g>
</svg>
